# xmcd
#
# Track frame offsets: 
#        150
#        10142
#        23654
#        37111
#        49518
#        62652
#        74588
#        86251
#        104514
#        120993
#        131850
#        144191
#        155986
#        168704
#        181178
#        191781
#        202710
#        218835
#        233603
#        246722
#        258675
#        268809
#        280104
#
# Disc length: 3884 seconds
#
# Revision: 0
# Processed by: cddbd v1.4PL0 Copyright (c) Steve Scherf et al.
# Submitted via: ExactAudioCopy v0.90a11
#
DISCID=550f2a17
DTITLE=John Lee Hooker - The Ultimate Blues Box - Disc One The Very Be
DTITLE=st Of John Lee Hooker
DYEAR=1900
DGENRE=
TTITLE0=Dimples
TTITLE1=Every Night
TTITLE2=Baby Lee
TTITLE3=Crawlin' Black Spider
TTITLE4=I'm So Excited
TTITLE5=Mama, You Got A Daughter
TTITLE6=I Love You Honey
TTITLE7=House Rent Boogie
TTITLE8=Trying To Find A Woman
TTITLE9=Maudie
TTITLE10=I'm In The Mood
TTITLE11=Boogie Chillun
TTITLE12=Hobo Blues
TTITLE13=Crawlin' Kingsnake
TTITLE14=Dusty Road
TTITLE15=No Shoes
TTITLE16=My First Wife Left Me
TTITLE17=Moanin' Blues
TTITLE18=I'm Going Upstairs
TTITLE19=I'm Mad Again
TTITLE20=Want Ad Blues
TTITLE21=What do You Say
TTITLE22=Boom Boom
EXTD=
EXTT0=
EXTT1=
EXTT2=
EXTT3=
EXTT4=
EXTT5=
EXTT6=
EXTT7=
EXTT8=
EXTT9=
EXTT10=
EXTT11=
EXTT12=
EXTT13=
EXTT14=
EXTT15=
EXTT16=
EXTT17=
EXTT18=
EXTT19=
EXTT20=
EXTT21=
EXTT22=
PLAYORDER=
